<svg width="710" height="710" viewBox="0 0 710 710" fill="none" xmlns="http://www.w3.org/2000/svg">
<rect width="710" height="710" rx="355" fill="white"/>
<path d="M347.055 188.26C345.124 195.105 342.816 201.681 340.118 208.26C339.783 209.085 339.449 209.91 339.104 210.76C338.429 212.424 337.753 214.088 337.075 215.752C333.762 223.887 333.762 223.887 330.629 232.092C328.521 237.768 326.17 243.348 323.868 248.947C320.029 258.312 316.285 267.701 312.781 277.196C310.854 282.366 308.667 287.362 306.358 292.372C304.09 297.4 302.043 302.515 299.993 307.635C299.572 308.669 299.151 309.702 298.717 310.768C295.729 318.217 293.433 325.532 291.055 333.26C310.525 333.26 329.995 333.26 350.055 333.26C351.055 337.26 351.055 337.26 350.026 339.679C349.492 340.568 348.957 341.457 348.407 342.373C347.818 343.366 347.229 344.359 346.623 345.383C345.982 346.435 345.341 347.488 344.68 348.572C344.034 349.655 343.388 350.738 342.722 351.854C340.844 354.996 338.951 358.129 337.055 361.26C336.192 362.699 335.33 364.139 334.469 365.58C333.04 367.972 331.604 370.359 330.165 372.744C328.331 375.789 326.531 378.854 324.738 381.923C317.58 394.173 310.179 406.276 302.798 418.392C302.223 419.338 301.648 420.285 301.055 421.26C300.23 422.56 300.23 422.56 299.389 423.886C298.154 426.084 297.602 427.828 297.055 430.26C297.79 430.258 298.525 430.255 299.282 430.253C306.198 430.233 313.113 430.218 320.029 430.208C323.585 430.203 327.141 430.196 330.697 430.184C334.782 430.171 338.868 430.167 342.954 430.162C344.874 430.154 344.874 430.154 346.833 430.146C348.014 430.146 349.195 430.146 350.412 430.146C351.978 430.143 351.978 430.143 353.575 430.14C356.055 430.26 356.055 430.26 358.055 431.26C357.113 435.391 355.422 439.069 353.618 442.885C353.091 444.003 353.091 444.003 352.553 445.144C349.586 451.344 346.335 457.358 342.909 463.315C340.271 467.936 337.843 472.643 335.481 477.41C330.921 486.569 326.243 495.666 321.555 504.76C320.724 506.373 319.894 507.986 319.063 509.6C317.061 513.487 315.059 517.373 313.055 521.26C288.672 521.353 264.288 521.424 239.905 521.467C228.582 521.488 217.259 521.516 205.936 521.562C196.062 521.602 186.188 521.627 176.314 521.636C171.09 521.641 165.867 521.653 160.643 521.683C155.716 521.71 150.789 521.718 145.862 521.712C144.063 521.713 142.265 521.721 140.467 521.737C116.027 521.936 94.2609 514.017 76.0552 497.26C64.7227 485.191 57.7692 471.934 53.0552 456.26C52.6788 455.082 52.3023 453.903 51.9145 452.689C50.3862 446.327 50.6594 439.703 50.6802 433.197C50.6814 432.502 50.6826 431.807 50.6838 431.091C50.7317 420.985 51.0404 411.718 55.0552 402.26C55.3236 401.627 55.5921 400.993 55.8686 400.341C66.039 376.97 82.009 360.231 105.821 350.482C111.995 348.148 117.448 346.984 124.055 347.26C123.993 346.043 123.931 344.826 123.868 343.572C123.924 325.559 133.375 309.78 143.055 295.26C143.715 295.26 144.375 295.26 145.055 295.26C145.282 294.538 145.509 293.816 145.743 293.072C151.661 280.39 169.68 271.429 182.055 266.26C182.994 265.853 182.994 265.853 183.953 265.438C206.138 256.211 231.157 260.59 253.055 268.26C253.361 267.484 253.667 266.709 253.983 265.91C260.368 250.13 271.904 235.04 284.879 224.131C286.462 222.77 288.001 221.359 289.512 219.92C295.549 214.184 301.717 209.617 308.793 205.268C310.96 203.934 313.102 202.559 315.215 201.143C317.504 199.625 319.738 198.255 322.18 197.01C322.822 196.675 323.464 196.339 324.125 195.994C326.055 195.26 326.055 195.26 330.055 195.26C330.055 194.6 330.055 193.94 330.055 193.26C332.324 192.421 334.595 191.588 336.868 190.76C337.51 190.521 338.153 190.283 338.815 190.037C341.704 188.989 343.956 188.26 347.055 188.26Z" fill="url(#paint0_linear_22_297)"/>
<path d="M459.055 197.26C464.083 197.821 467.838 200.191 472.118 202.697C473.525 203.509 474.932 204.32 476.34 205.131C476.958 205.491 477.575 205.851 478.212 206.222C479.501 206.948 480.819 207.624 482.155 208.26C484.339 209.409 485.754 210.938 487.446 212.709C489.499 214.687 491.696 216.427 493.93 218.197C522.866 241.132 542.992 275.892 547.75 312.705C548.252 318.56 548.216 324.39 548.055 330.26C548.845 330.101 549.636 329.943 550.45 329.779C576.713 325.995 599.685 333.225 621.055 348.26C624.683 351.017 627.88 353.994 631.055 357.26C631.834 358.041 632.612 358.822 633.415 359.627C652.116 379.245 659.734 404.357 659.336 431.17C658.679 448.436 652.084 465.195 644.055 480.26C643.395 480.26 642.735 480.26 642.055 480.26C641.839 480.955 641.622 481.649 641.399 482.365C639.704 486.015 637.29 488.681 634.555 491.572C634.015 492.145 633.476 492.719 632.92 493.309C618.522 508.352 597.188 520.465 575.857 521.351C573.172 521.386 570.489 521.388 567.805 521.38C566.775 521.381 565.745 521.382 564.683 521.383C561.233 521.384 557.783 521.379 554.333 521.373C551.859 521.373 549.385 521.373 546.912 521.374C541.587 521.374 536.262 521.371 530.937 521.366C523.238 521.357 515.538 521.355 507.839 521.354C495.348 521.351 482.856 521.345 470.364 521.335C458.231 521.326 446.097 521.319 433.964 521.315C432.842 521.314 432.842 521.314 431.697 521.314C427.944 521.313 424.19 521.311 420.437 521.31C389.31 521.3 358.182 521.282 327.055 521.26C327.999 520.154 328.943 519.049 329.888 517.945C330.414 517.329 330.94 516.714 331.481 516.08C333.724 513.486 336.042 510.966 338.368 508.447C341.726 504.802 345.066 501.144 348.368 497.447C352.766 492.545 357.261 487.736 361.761 482.928C365.382 479.059 368.981 475.172 372.555 471.26C376.785 466.636 381.036 462.034 385.305 457.447C385.872 456.837 386.438 456.227 387.022 455.598C390.423 451.95 393.894 448.39 397.45 444.892C399.119 443.195 400.687 441.436 402.243 439.635C408.592 432.286 415.267 425.221 421.918 418.146C422.575 417.448 423.231 416.75 423.907 416.031C425.175 414.684 426.444 413.337 427.715 411.992C430.829 408.685 433.911 405.35 436.942 401.967C437.515 401.328 438.088 400.69 438.679 400.032C440.26 398.198 440.26 398.198 441.055 395.26C440.31 395.249 439.565 395.239 438.798 395.229C431.779 395.131 424.76 395.028 417.742 394.92C414.133 394.865 410.525 394.812 406.916 394.762C403.434 394.715 399.953 394.662 396.471 394.607C394.495 394.577 392.519 394.551 390.543 394.526C389.342 394.506 388.141 394.486 386.904 394.465C385.844 394.45 384.785 394.434 383.694 394.418C381.055 394.26 381.055 394.26 378.055 393.26C378.58 389.151 379.723 387.005 382.493 383.947C383.419 382.901 383.419 382.901 384.364 381.834C386.055 380.26 386.055 380.26 388.055 380.26C388.313 379.687 388.571 379.115 388.836 378.525C390.169 376.048 391.706 374.126 393.555 372.01C394.164 371.303 394.772 370.597 395.399 369.869C397.055 368.26 397.055 368.26 399.055 368.26C399.374 367.448 399.374 367.448 399.7 366.619C401.545 363.406 404.095 361.054 406.743 358.51C412.047 353.312 417.013 347.951 421.739 342.217C422.276 341.571 422.814 340.925 423.368 340.26C423.838 339.682 424.309 339.105 424.793 338.51C426.055 337.26 426.055 337.26 428.055 337.26C428.282 336.703 428.509 336.146 428.743 335.572C430.428 332.603 432.61 330.647 435.055 328.26C436.012 327.317 436.967 326.373 437.922 325.428C438.412 324.944 438.901 324.459 439.405 323.961C443.85 319.549 448.154 315.111 452.2 310.326C455.47 306.684 459.059 303.345 462.602 299.971C465.533 296.976 465.533 296.976 468.055 291.26C444.295 291.26 420.535 291.26 396.055 291.26C395.055 287.26 395.055 287.26 396.321 284.771C396.976 283.839 397.63 282.908 398.305 281.947C399.05 280.879 399.795 279.81 400.563 278.709C403.531 274.58 406.537 270.478 409.564 266.391C413.489 261.079 417.283 255.681 421.055 250.26C425.621 243.702 430.254 237.205 435.006 230.78C439.005 225.361 442.887 219.862 446.76 214.351C450.798 208.609 454.9 202.918 459.055 197.26Z" fill="url(#paint1_linear_22_297)"/>
<path d="M566.055 347.26C583.611 346.396 600.45 354.895 613.68 365.947C623.443 375.049 629.83 386.129 635.055 398.26C635.513 399.322 635.97 400.384 636.442 401.479C642.243 417.927 641.103 438.429 634.055 454.26C633.637 455.211 633.637 455.211 633.21 456.182C627.706 468.395 619.659 478.032 609.055 486.26C608.395 486.26 607.735 486.26 607.055 486.26C607.723 482.259 608.941 478.716 610.43 474.947C610.877 473.796 611.325 472.645 611.786 471.459C612.499 469.662 613.222 467.87 613.981 466.092C622.415 445.806 620.144 418.156 612.194 398.087C607.129 386.168 598.052 368.258 586.055 362.26C586.055 361.6 586.055 360.94 586.055 360.26C585.484 359.989 584.913 359.718 584.325 359.44C581.999 358.231 579.903 356.866 577.743 355.385C573.936 352.813 570.074 350.483 566.055 348.26C566.055 347.93 566.055 347.6 566.055 347.26Z" fill="#C3E8F5"/>
<path d="M566.055 347.26C583.697 346.392 600.683 354.953 613.868 366.197C618.85 370.839 623.856 375.527 625.18 382.447C625.033 386.943 623.966 387.996 621.055 391.26C620.719 393.97 620.719 393.97 621.055 396.26C620.065 396.755 620.065 396.755 619.055 397.26C618.395 395.94 617.735 394.62 617.055 393.26C616.725 394.91 616.395 396.56 616.055 398.26C613.055 397.26 613.055 397.26 611.958 395.404C611.639 394.635 611.321 393.865 610.993 393.072C610.65 392.263 610.307 391.453 609.954 390.619C609.055 388.26 609.055 388.26 608.118 384.822C607.767 383.977 607.416 383.131 607.055 382.26C605.889 381.831 605.889 381.831 604.7 381.393C601.432 379.993 600.553 378.555 598.68 375.572C595.356 370.554 591.578 365.021 586.055 362.26C586.055 361.6 586.055 360.94 586.055 360.26C585.484 359.989 584.913 359.718 584.325 359.439C581.999 358.231 579.903 356.866 577.743 355.385C573.936 352.813 570.074 350.483 566.055 348.26C566.055 347.93 566.055 347.6 566.055 347.26Z" fill="#D7F0F7"/>
<defs>
<linearGradient id="paint0_linear_22_297" x1="50.6484" y1="355" x2="358.055" y2="355" gradientUnits="userSpaceOnUse">
<stop offset="0.331731" stop-color="#106BE4"/>
<stop offset="1" stop-color="#118DE3"/>
</linearGradient>
<linearGradient id="paint1_linear_22_297" x1="327.055" y1="359.322" x2="659.351" y2="359.322" gradientUnits="userSpaceOnUse">
<stop stop-color="#0490E4"/>
<stop offset="1" stop-color="#2FBAEB"/>
</linearGradient>
</defs>
</svg>
