<svg width="610" height="610" viewBox="0 0 610 610" fill="none" xmlns="http://www.w3.org/2000/svg">
<path d="M297.055 138.26C295.124 145.105 292.816 151.681 290.118 158.26C289.783 159.085 289.449 159.91 289.104 160.76C288.429 162.424 287.753 164.088 287.075 165.752C283.762 173.887 283.762 173.887 280.629 182.092C278.521 187.768 276.17 193.348 273.868 198.947C270.029 208.312 266.285 217.701 262.781 227.196C260.854 232.366 258.667 237.362 256.358 242.372C254.09 247.4 252.043 252.515 249.993 257.635C249.572 258.669 249.151 259.702 248.717 260.768C245.729 268.217 243.433 275.532 241.055 283.26C260.525 283.26 279.995 283.26 300.055 283.26C301.055 287.26 301.055 287.26 300.026 289.679C299.492 290.568 298.957 291.457 298.407 292.373C297.818 293.366 297.229 294.359 296.623 295.383C295.982 296.435 295.341 297.488 294.68 298.572C294.034 299.655 293.388 300.738 292.722 301.854C290.844 304.996 288.951 308.129 287.055 311.26C286.192 312.699 285.33 314.139 284.469 315.58C283.04 317.972 281.604 320.359 280.165 322.744C278.331 325.789 276.531 328.854 274.738 331.923C267.58 344.173 260.179 356.276 252.798 368.392C252.223 369.338 251.648 370.285 251.055 371.26C250.23 372.56 250.23 372.56 249.389 373.886C248.154 376.084 247.602 377.828 247.055 380.26C247.79 380.258 248.525 380.255 249.282 380.253C256.198 380.233 263.113 380.218 270.029 380.208C273.585 380.203 277.141 380.196 280.697 380.184C284.782 380.171 288.868 380.167 292.954 380.162C294.874 380.154 294.874 380.154 296.833 380.146C298.014 380.146 299.195 380.146 300.412 380.146C301.978 380.143 301.978 380.143 303.575 380.14C306.055 380.26 306.055 380.26 308.055 381.26C307.113 385.391 305.422 389.069 303.618 392.885C303.091 394.003 303.091 394.003 302.553 395.144C299.586 401.344 296.335 407.358 292.909 413.315C290.271 417.936 287.843 422.643 285.481 427.41C280.921 436.569 276.243 445.666 271.555 454.76C270.724 456.373 269.894 457.986 269.063 459.6C267.061 463.487 265.059 467.373 263.055 471.26C238.672 471.353 214.288 471.424 189.905 471.467C178.582 471.488 167.259 471.516 155.936 471.562C146.062 471.602 136.188 471.627 126.314 471.636C121.09 471.641 115.867 471.653 110.643 471.683C105.716 471.71 100.789 471.718 95.8616 471.712C94.0635 471.713 92.2653 471.721 90.4672 471.737C66.0275 471.936 44.2609 464.017 26.0552 447.26C14.7227 435.191 7.76923 421.934 3.05516 406.26C2.67875 405.082 2.30235 403.903 1.91453 402.689C0.386191 396.327 0.659414 389.703 0.680158 383.197C0.681367 382.502 0.682575 381.807 0.683821 381.091C0.731661 370.985 1.04036 361.718 5.05516 352.26C5.32361 351.627 5.59205 350.993 5.86864 350.341C16.039 326.97 32.009 310.231 55.8208 300.482C61.9951 298.148 67.4476 296.984 74.0552 297.26C73.9933 296.043 73.9314 294.826 73.8677 293.572C73.9241 275.559 83.375 259.78 93.0552 245.26C93.7152 245.26 94.3752 245.26 95.0552 245.26C95.282 244.538 95.5089 243.816 95.7427 243.072C101.661 230.39 119.68 221.429 132.055 216.26C132.994 215.853 132.994 215.853 133.953 215.438C156.138 206.211 181.157 210.59 203.055 218.26C203.361 217.484 203.667 216.709 203.983 215.91C210.368 200.13 221.904 185.04 234.879 174.131C236.462 172.77 238.001 171.359 239.512 169.92C245.549 164.184 251.717 159.617 258.793 155.268C260.96 153.934 263.102 152.559 265.215 151.143C267.504 149.625 269.738 148.255 272.18 147.01C272.822 146.675 273.464 146.339 274.125 145.994C276.055 145.26 276.055 145.26 280.055 145.26C280.055 144.6 280.055 143.94 280.055 143.26C282.324 142.421 284.595 141.588 286.868 140.76C287.51 140.521 288.153 140.283 288.815 140.037C291.704 138.989 293.956 138.26 297.055 138.26Z" fill="url(#paint0_linear_21_8)"/>
<path d="M409.055 147.26C414.083 147.821 417.838 150.191 422.118 152.697C423.525 153.509 424.932 154.32 426.34 155.131C426.958 155.491 427.575 155.851 428.212 156.222C429.501 156.948 430.819 157.624 432.155 158.26C434.339 159.409 435.754 160.938 437.446 162.709C439.499 164.687 441.696 166.427 443.93 168.197C472.866 191.132 492.992 225.892 497.75 262.705C498.252 268.56 498.216 274.39 498.055 280.26C498.845 280.101 499.636 279.943 500.45 279.779C526.713 275.995 549.685 283.225 571.055 298.26C574.683 301.017 577.88 303.994 581.055 307.26C581.834 308.041 582.612 308.822 583.415 309.627C602.116 329.245 609.734 354.357 609.336 381.17C608.679 398.436 602.084 415.195 594.055 430.26C593.395 430.26 592.735 430.26 592.055 430.26C591.839 430.955 591.622 431.649 591.399 432.365C589.704 436.015 587.29 438.681 584.555 441.572C584.015 442.145 583.476 442.719 582.92 443.309C568.522 458.352 547.188 470.465 525.857 471.351C523.172 471.386 520.489 471.388 517.805 471.38C516.775 471.381 515.745 471.382 514.683 471.383C511.233 471.384 507.783 471.379 504.333 471.373C501.859 471.373 499.385 471.373 496.912 471.374C491.587 471.374 486.262 471.371 480.937 471.366C473.238 471.357 465.538 471.355 457.839 471.354C445.348 471.351 432.856 471.345 420.364 471.335C408.231 471.326 396.097 471.319 383.964 471.315C382.842 471.314 382.842 471.314 381.697 471.314C377.944 471.313 374.19 471.311 370.437 471.31C339.31 471.3 308.182 471.282 277.055 471.26C277.999 470.154 278.943 469.049 279.888 467.945C280.414 467.329 280.94 466.714 281.481 466.08C283.724 463.486 286.042 460.966 288.368 458.447C291.726 454.802 295.066 451.144 298.368 447.447C302.766 442.545 307.261 437.736 311.761 432.928C315.382 429.059 318.981 425.172 322.555 421.26C326.785 416.636 331.036 412.034 335.305 407.447C335.872 406.837 336.438 406.227 337.022 405.598C340.423 401.95 343.894 398.39 347.45 394.892C349.119 393.195 350.687 391.436 352.243 389.635C358.592 382.286 365.267 375.221 371.918 368.146C372.575 367.448 373.231 366.75 373.907 366.031C375.175 364.684 376.444 363.337 377.715 361.992C380.829 358.685 383.911 355.35 386.942 351.967C387.515 351.328 388.088 350.69 388.679 350.032C390.26 348.198 390.26 348.198 391.055 345.26C390.31 345.249 389.565 345.239 388.798 345.229C381.779 345.131 374.76 345.028 367.742 344.92C364.133 344.865 360.525 344.812 356.916 344.762C353.434 344.715 349.953 344.662 346.471 344.607C344.495 344.577 342.519 344.551 340.543 344.526C339.342 344.506 338.141 344.486 336.904 344.465C335.844 344.45 334.785 344.434 333.694 344.418C331.055 344.26 331.055 344.26 328.055 343.26C328.58 339.151 329.723 337.005 332.493 333.947C333.419 332.901 333.419 332.901 334.364 331.834C336.055 330.26 336.055 330.26 338.055 330.26C338.313 329.687 338.571 329.115 338.836 328.525C340.169 326.048 341.706 324.126 343.555 322.01C344.164 321.303 344.772 320.597 345.399 319.869C347.055 318.26 347.055 318.26 349.055 318.26C349.374 317.448 349.374 317.448 349.7 316.619C351.545 313.406 354.095 311.054 356.743 308.51C362.047 303.312 367.013 297.951 371.739 292.217C372.276 291.571 372.814 290.925 373.368 290.26C373.838 289.682 374.309 289.105 374.793 288.51C376.055 287.26 376.055 287.26 378.055 287.26C378.282 286.703 378.509 286.146 378.743 285.572C380.428 282.603 382.61 280.647 385.055 278.26C386.012 277.317 386.967 276.373 387.922 275.428C388.412 274.944 388.901 274.459 389.405 273.961C393.85 269.549 398.154 265.111 402.2 260.326C405.47 256.684 409.059 253.345 412.602 249.971C415.533 246.976 415.533 246.976 418.055 241.26C394.295 241.26 370.535 241.26 346.055 241.26C345.055 237.26 345.055 237.26 346.321 234.771C346.976 233.839 347.63 232.908 348.305 231.947C349.05 230.879 349.795 229.81 350.563 228.709C353.531 224.58 356.537 220.478 359.564 216.391C363.489 211.079 367.283 205.681 371.055 200.26C375.621 193.702 380.254 187.205 385.006 180.78C389.005 175.361 392.887 169.862 396.76 164.351C400.798 158.609 404.9 152.918 409.055 147.26Z" fill="url(#paint1_linear_21_8)"/>
<path d="M516.055 297.26C533.611 296.396 550.45 304.895 563.68 315.947C573.443 325.049 579.83 336.129 585.055 348.26C585.513 349.322 585.97 350.384 586.442 351.479C592.243 367.927 591.103 388.429 584.055 404.26C583.637 405.211 583.637 405.211 583.21 406.182C577.706 418.395 569.659 428.032 559.055 436.26C558.395 436.26 557.735 436.26 557.055 436.26C557.723 432.259 558.941 428.716 560.43 424.947C560.877 423.796 561.325 422.645 561.786 421.459C562.499 419.662 563.222 417.87 563.981 416.092C572.415 395.806 570.144 368.156 562.194 348.087C557.129 336.168 548.052 318.258 536.055 312.26C536.055 311.6 536.055 310.94 536.055 310.26C535.484 309.989 534.913 309.718 534.325 309.44C531.999 308.231 529.903 306.866 527.743 305.385C523.936 302.813 520.074 300.483 516.055 298.26C516.055 297.93 516.055 297.6 516.055 297.26Z" fill="#C3E8F5"/>
<path d="M516.055 297.26C533.697 296.392 550.683 304.953 563.868 316.197C568.85 320.839 573.856 325.527 575.18 332.447C575.033 336.943 573.966 337.996 571.055 341.26C570.719 343.97 570.719 343.97 571.055 346.26C570.065 346.755 570.065 346.755 569.055 347.26C568.395 345.94 567.735 344.62 567.055 343.26C566.725 344.91 566.395 346.56 566.055 348.26C563.055 347.26 563.055 347.26 561.958 345.404C561.639 344.635 561.321 343.865 560.993 343.072C560.65 342.263 560.307 341.453 559.954 340.619C559.055 338.26 559.055 338.26 558.118 334.822C557.767 333.977 557.416 333.131 557.055 332.26C555.889 331.831 555.889 331.831 554.7 331.393C551.432 329.993 550.553 328.555 548.68 325.572C545.356 320.554 541.578 315.021 536.055 312.26C536.055 311.6 536.055 310.94 536.055 310.26C535.484 309.989 534.913 309.718 534.325 309.439C531.999 308.231 529.903 306.866 527.743 305.385C523.936 302.813 520.074 300.483 516.055 298.26C516.055 297.93 516.055 297.6 516.055 297.26Z" fill="#D7F0F7"/>
<defs>
<linearGradient id="paint0_linear_21_8" x1="0.648438" y1="305" x2="308.055" y2="305" gradientUnits="userSpaceOnUse">
<stop offset="0.331731" stop-color="#106BE4"/>
<stop offset="1" stop-color="#118DE3"/>
</linearGradient>
<linearGradient id="paint1_linear_21_8" x1="277.055" y1="309.322" x2="609.351" y2="309.322" gradientUnits="userSpaceOnUse">
<stop stop-color="#0490E4"/>
<stop offset="1" stop-color="#2FBAEB"/>
</linearGradient>
</defs>
</svg>
